<svg xmlns="http://www.w3.org/2000/svg" xmlns:xlink="http://www.w3.org/1999/xlink" viewBox="0 0 1440 900"><defs><path id="a" d="M0 0h1440v900H0z"/></defs><radialGradient id="b" cx="709.442" cy="908.395" r="932.72" gradientUnits="userSpaceOnUse"><stop offset="0" stop-color="#25a0ff"/><stop offset=".078" stop-color="#249bfa"/><stop offset=".169" stop-color="#228eec"/><stop offset=".268" stop-color="#1f78d4"/><stop offset=".37" stop-color="#1a5ab3"/><stop offset=".477" stop-color="#153289"/><stop offset=".586" stop-color="#0d0356"/><stop offset=".591" stop-color="#0d0053"/><stop offset=".7" stop-color="#0a0041"/><stop offset=".917" stop-color="#030013"/><stop offset="1"/></radialGradient><use xlink:href="#a" overflow="visible" fill="url(#b)"/><clipPath id="c"><use xlink:href="#a" overflow="visible"/></clipPath><g clip-path="url(#c)"><image overflow="visible" width="2650" height="2651" xlink:href="8BB38584.png" transform="translate(-605 581)"/><radialGradient id="d" cx="709.441" cy="920.74" r="932.72" gradientTransform="translate(-499.38 -1016.523) scale(2.106)" gradientUnits="userSpaceOnUse"><stop offset=".947"/><stop offset=".955" stop-color="#000203"/><stop offset=".962" stop-color="#02090e"/><stop offset=".968" stop-color="#04131f"/><stop offset=".975" stop-color="#082337"/><stop offset=".98" stop-color="#0d3657"/><stop offset=".986" stop-color="#124f7d"/><stop offset=".992" stop-color="#196bab"/><stop offset=".997" stop-color="#208cdf"/><stop offset="1" stop-color="#25a0ff"/></radialGradient><circle fill="url(#d)" cx="720" cy="1906" r="1250"/></g><g fill="#FFF"><path d="M427.3 773.6h-7.6v8.3h8.5v1.1h-9.8v-18.9h9.4v1.1h-8v7.3h7.6v1.1zM444.2 783l-6.3-18.9h1.4l3.3 10.1c.9 2.8 1.7 5.1 2.2 7.3h.1c.6-2.1 1.4-4.6 2.4-7.3l3.7-10.1h1.4l-7 18.9h-1.2zM471.9 773.6h-7.6v8.3h8.5v1.1H463v-18.9h9.4v1.1h-8v7.3h7.6v1.1zM484.5 764.3c1.2-.3 2.8-.4 4.1-.4 2.5 0 4 .5 5.1 1.6.8.8 1.3 2.1 1.3 3.4 0 2.6-1.5 4.2-3.7 4.9v.1c1.5.5 2.5 1.9 2.9 4 .6 3 1 4.4 1.4 5.1h-1.4c-.3-.6-.7-2.2-1.2-4.6-.6-2.7-1.7-4-4.2-4.1h-3v8.7h-1.3v-18.7zm1.3 8.9h3c2.9 0 4.8-1.6 4.8-4.1 0-2.9-2.1-4.1-5.1-4.1-1.3 0-2.2.1-2.7.3v7.9zM511.1 783v-8.2l-6-10.7h1.5l3.1 5.7c.8 1.5 1.5 2.7 2.1 4.1h.1c.6-1.3 1.3-2.6 2.2-4.1l3.2-5.6h1.5l-6.4 10.8v8.2h-1.3zM534.7 765.2h-6.2v-1.1h13.7v1.1H536V783h-1.3v-17.8zM553.9 764.1v8.3h10.5v-8.3h1.3V783h-1.3v-9.5h-10.5v9.5h-1.3v-18.9h1.3zM580.1 764.1V783h-1.3v-18.9h1.3zM593.1 783v-18.9h1.3l7.4 11.2c1.5 2.4 2.6 4.1 3.5 6h.1c-.2-2.6-.2-4.7-.2-7.7v-9.4h1.3V783h-1.3l-7.2-11c-1.4-2.2-2.7-4.2-3.7-6.1h-.1c.1 2.3.2 4.4.2 7.5v9.6h-1.3zM633.1 782.2c-1 .4-2.9 1-5.5 1-2.5 0-4.8-.6-6.7-2.5-1.5-1.5-2.6-4-2.6-7.1 0-5.3 3.4-9.7 9.9-9.7 2.1 0 3.7.5 4.4.8l-.4 1.1c-1-.5-2.2-.8-4-.8-5.2 0-8.4 3.4-8.4 8.5 0 5.3 3.1 8.5 8.2 8.5 2 0 3.3-.3 4-.6v-6.7h-4.4v-1.1h5.7v8.6zM662.8 783v-8.2l-6-10.7h1.5l3.1 5.7c.8 1.5 1.5 2.7 2.1 4.1h.1c.6-1.3 1.3-2.6 2.2-4.1l3.2-5.6h1.5l-6.4 10.8v8.2h-1.3zM695.9 773.3c0 6.7-4.1 10-8.5 10-4.7 0-8.3-3.7-8.3-9.6 0-6.2 3.7-10 8.5-10 4.9.1 8.3 3.8 8.3 9.6zm-15.3.4c0 4.3 2.5 8.5 7 8.5s7-4.1 7-8.8c0-4-2.2-8.5-6.9-8.5-4.9 0-7.1 4.4-7.1 8.8zM709 764.1v11.4c0 4.8 2.2 6.7 5.1 6.7 3.1 0 5.3-2 5.3-6.7v-11.4h1.3v11.3c0 5.8-3.1 8-6.7 8-3.3 0-6.3-1.9-6.3-7.7v-11.5h1.3zM748.4 783v-18.9h1.3l7.4 11.2c1.5 2.4 2.6 4.1 3.5 6h.1c-.2-2.6-.2-4.7-.2-7.7v-9.4h1.3V783h-1.3l-7.2-11c-1.4-2.2-2.7-4.2-3.7-6.1h-.1c.1 2.3.2 4.4.2 7.5v9.6h-1.3zM783.6 773.6H776v8.3h8.5v1.1h-9.8v-18.9h9.4v1.1h-8v7.3h7.6v1.1zM805.2 773.6h-7.6v8.3h8.5v1.1h-9.8v-18.9h9.4v1.1h-8v7.3h7.6v1.1zM817.8 764.3c1.4-.2 3.1-.4 4.8-.4 3.5 0 6.1.9 7.6 2.6 1.5 1.6 2.4 3.7 2.4 6.5s-.8 5.3-2.5 7.2c-1.7 1.8-4.5 2.9-8.2 2.9-1.5 0-2.8 0-4.2-.2v-18.6zm1.3 17.6c.8.1 1.9.3 3.1.1 8.6-1 8.9-4.1 9.1-8.9.1-4.5-2.6-8.1-8.7-8.1-1.5 0-2.6.1-3.4.3v16.6zM861.4 765.2h-6.2v-1.1h13.7v1.1h-6.2V783h-1.3v-17.8zM894.1 773.3c0 6.7-4.1 10-8.5 10-4.7 0-8.3-3.7-8.3-9.6 0-6.2 3.7-10 8.5-10 4.8.1 8.3 3.8 8.3 9.6zm-15.4.4c0 4.3 2.5 8.5 7 8.5s7-4.1 7-8.8c0-4-2.2-8.5-6.9-8.5-4.8 0-7.1 4.4-7.1 8.8zM920.5 764.1h1.3v9.6h.1c.5-.7 1.1-1.4 1.6-2l6.7-7.6h1.7l-7.2 8 7.9 10.9H931l-7.2-10-1.9 2.1v7.8h-1.3v-18.8zM942.9 783v-18.9h1.3l7.4 11.2c1.5 2.4 2.6 4.1 3.5 6h.1c-.2-2.6-.2-4.7-.2-7.7v-9.4h1.3V783H955l-7.2-11c-1.4-2.2-2.7-4.2-3.7-6.1h-.1c.1 2.3.2 4.4.2 7.5v9.6h-1.3zM984.8 773.3c0 6.7-4.1 10-8.5 10-4.7 0-8.3-3.7-8.3-9.6 0-6.2 3.7-10 8.5-10 4.8.1 8.3 3.8 8.3 9.6zm-15.4.4c0 4.3 2.5 8.5 7 8.5s7-4.1 7-8.8c0-4-2.2-8.5-6.9-8.5-4.8 0-7.1 4.4-7.1 8.8zM999.9 783l-5-18.9h1.3l2.8 10.7c.6 2.4 1.2 4.7 1.6 6.5h.1c.3-1.8 1-4 1.7-6.5l3.1-10.7h1.3l2.8 10.6c.6 2.3 1.2 4.7 1.5 6.6h.1c.4-2.1 1-4.1 1.7-6.5l3.1-10.7h1.4l-5.7 18.9h-1.3l-2.9-10.9c-.7-2.8-1.2-4.7-1.5-6.4h-.1c-.3 1.8-.8 3.6-1.7 6.4L1001 783h-1.1zM1027.3 783.3c-.6 0-1.1-.6-1.1-1.3 0-.7.5-1.3 1.2-1.3s1.1.5 1.1 1.3c0 .7-.4 1.3-1.2 1.3z"/></g></svg>